<svg xmlns="http://www.w3.org/2000/svg" viewBox="0 0 112.24 61.04"><path d="M80.75 22h10.47v4H80.75zM21.08 28h10.47v4H21.08zM26.46 13h32.81v6H26.46z"/><path d="M0 0v43h112V0H0Zm48.59 37c1.33-3.09 4.41-5.27 7.99-5.27s6.66 2.17 7.99 5.27H48.59ZM106 37H72.92c-1.59-7.57-8.31-13.27-16.34-13.27S41.83 29.43 40.24 37H6V6h100v31ZM3.55 56.53c.7 1.04 1.69 1.61 2.79 1.61.76 0 1.34-.33 1.34-.78 0-.56-.64-.72-2.21-1.2-1.97-.59-3.99-1.36-3.99-3.76 0-2.25 2.21-3.65 4.56-3.65s3.68 1.05 4.69 2.62l-2.38 1.65c-.47-.78-1.33-1.38-2.35-1.38-.57 0-1.13.24-1.13.75 0 .55.71.83 1.61 1.08 2.69.76 4.6 1.62 4.6 3.89 0 2.45-2.5 3.67-4.76 3.67s-4.21-1.02-5.26-2.76l2.5-1.75ZM12.94 60.87V48.93h5.93c2.32 0 4.2 1.69 4.2 4.07s-1.88 4.12-4.2 4.12h-2.43v3.74h-3.51Zm3.51-6.58h1.85c.76 0 1.22-.63 1.22-1.28 0-.69-.45-1.23-1.22-1.23h-1.85v2.51ZM24.65 48.93h8.72v2.81h-5.22v1.65h4.58v2.8h-4.58v1.86h5.31v2.8h-8.81V48.91ZM34.2 54.88c0-3.52 2.64-6.13 6.41-6.13 2.25 0 4.23 1.2 5.19 2.99l-2.55 1.77c-.47-.91-1.26-1.69-2.65-1.69-1.75 0-2.86 1.24-2.86 3.06s1.15 3.09 2.86 3.09c1.21 0 2.18-.62 2.81-1.71l2.5 1.75c-.87 1.75-3.03 3.02-5.32 3.02-3.77 0-6.41-2.65-6.41-6.16ZM46.08 48.93h10.4v2.87h-3.49v9.07h-3.51V51.8h-3.4v-2.87ZM61.32 60.87h-3.51V48.93h3.51v11.94ZM63.95 48.93h8.96v2.8h-5.45v1.76h4.27v2.81h-4.27v4.56h-3.51V48.92ZM73.63 57.59c.99 0 1.77.76 1.77 1.73s-.77 1.72-1.77 1.72-1.76-.76-1.76-1.72.76-1.73 1.76-1.73ZM75.87 60.87l4.59-11.94h4.18l4.58 11.94h-3.74l-.77-2h-4.32l-.77 2h-3.74Zm5.31-4.64h2.73l-1.36-3.99-1.37 3.99ZM90.4 60.87V48.93h5.93c2.32 0 4.2 1.69 4.2 4.07s-1.88 4.12-4.2 4.12H93.9v3.74h-3.51Zm3.51-6.58h1.85c.76 0 1.22-.63 1.22-1.28 0-.69-.45-1.23-1.22-1.23h-1.85v2.51ZM102.11 60.87V48.93h5.93c2.32 0 4.2 1.69 4.2 4.07s-1.88 4.12-4.2 4.12h-2.43v3.74h-3.51Zm3.51-6.58h1.85c.76 0 1.22-.63 1.22-1.28 0-.69-.45-1.23-1.22-1.23h-1.85v2.51Z"/></svg>